<svg xmlns="http://www.w3.org/2000/svg" xmlns:xlink="http://www.w3.org/1999/xlink" width="500" zoomAndPan="magnify" viewBox="0 0 375 374.999991" height="500" preserveAspectRatio="xMidYMid meet" version="1.0"><defs><clipPath id="13c96c4450"><path d="M 48.109375 58.914062 L 320 58.914062 L 320 309 L 48.109375 309 Z M 48.109375 58.914062 " clip-rule="nonzero"/></clipPath></defs><rect x="-37.5" width="450" fill="#ffffff" y="-37.499999" height="449.999989" fill-opacity="1"/><rect x="-37.5" width="450" fill="#ffffff" y="-37.499999" height="449.999989" fill-opacity="1"/><rect x="-37.5" width="450" fill="#000000" y="-37.499999" height="449.999989" fill-opacity="1"/><g clip-path="url(#13c96c4450)"><path fill="#ffffff" d="M 156.085938 66.3125 C 164.804688 61.269531 174.351562 58.914062 183.785156 58.941406 C 193.21875 58.914062 202.761719 61.269531 211.480469 66.3125 C 217.132812 69.574219 221.984375 73.6875 225.988281 78.429688 L 226.125 78.59375 C 226.261719 78.757812 226.402344 78.921875 226.539062 79.085938 C 228.429688 81.390625 230.183594 83.882812 231.722656 86.570312 L 311.882812 225.324219 C 327.101562 251.691406 317.996094 285.707031 291.613281 300.949219 C 265.234375 316.164062 231.199219 307.035156 215.953125 280.664062 L 202.597656 257.53125 C 191.40625 238.179688 177.230469 207.726562 162.613281 193.28125 C 147.035156 177.929688 125.644531 168.445312 102.0625 168.445312 C 97.234375 168.445312 92.488281 168.855469 87.855469 169.625 L 130.199219 96.328125 C 133.542969 90.515625 136.75 84.265625 141.03125 79.085938 C 141.167969 78.921875 141.304688 78.757812 141.441406 78.59375 L 141.578125 78.429688 C 145.582031 73.6875 150.4375 69.574219 156.085938 66.3125 Z M 102.0625 200.707031 C 131.84375 200.707031 156.003906 224.855469 156.003906 254.625 C 156.003906 284.421875 131.84375 308.542969 102.0625 308.542969 C 72.277344 308.542969 48.117188 284.421875 48.117188 254.625 C 48.117188 224.855469 72.277344 200.707031 102.0625 200.707031 Z M 102.0625 200.707031 " fill-opacity="1" fill-rule="evenodd"/></g></svg>